<svg width="40" height="40" viewBox="0 0 40 40" fill="none" xmlns="http://www.w3.org/2000/svg">
<path d="M19.9994 0C12.6475 0 6.66602 5.98149 6.66602 13.3334C6.66602 15.5404 7.21781 17.7287 8.2668 19.6696L19.2702 39.5703C19.4167 39.8356 19.6959 40 19.9994 40C20.3029 40 20.582 39.8356 20.7285 39.5703L31.736 19.663C32.7809 17.7287 33.3327 15.5403 33.3327 13.3333C33.3327 5.98148 27.3512 0 19.9994 0ZM19.9994 20C16.3234 20 13.3327 17.0093 13.3327 13.3334C13.3327 9.65742 16.3234 6.66672 19.9994 6.66672C23.6753 6.66672 26.666 9.65742 26.666 13.3334C26.666 17.0093 23.6753 20 19.9994 20Z" fill="#808080"/>
</svg>
